<?xml version="1.0" standalone="no"?> <!DOCTYPE svg PUBLIC "-//W3C//DTD SVG 1.0//EN" "http://www.w3.org/TR/2001/REC-SVG-20010904/DTD/svg10.dtd" > <svg xmlns="http://www.w3.org/2000/svg" width="100%" height="100%">
<defs >
<font id="Opificio" horiz-adv-x="497" ><font-face
    font-family="Opificio"
    units-per-em="1000"
    panose-1="2 0 5 6 0 0 0 2 0 4"
    ascent="899"
    descent="-264"
    alphabetic="0" />
<missing-glyph horiz-adv-x="426" />
<glyph unicode=" " glyph-name="space" horiz-adv-x="335" />
<glyph unicode="!" glyph-name="exclam" horiz-adv-x="138" d="M104 131H34V700H104V131ZM110 42Q110 24 98 12T68 0Q50 0 38 12T26 42Q26 60 38 72T68 84Q86 84 98 72T110 42Z" />
<glyph unicode="&quot;" glyph-name="quotedbl" horiz-adv-x="241" d="M40 700H102V537H40V700ZM140 700H202V537H140V700Z" />
<glyph unicode="#" glyph-name="numbersign" horiz-adv-x="565" d="M540 500V430H419L394 344H506V274H374L297 0H223L300 274H214L137 0H63L140 274H31V344H160L185 430H65V500H204L261 700H335L278 500H364L421 700H495L438 500H540ZM234 344H320L345 430H259L234 344Z" />
<glyph unicode="$" glyph-name="dollar" horiz-adv-x="534" d="M240 773H310V721Q340 717 365 705Q405 686 433 660T476 604T495 555H418Q399 603 358 628Q335 642 310 648V394Q317 392 325 390Q375 374 417 349T486 283T514 179Q514 131 494 93T441 29T363 -10Q337
-18 310 -22V-74H240V-22Q208 -18 177 -7Q131 10 96 40T40 114T18 209H88Q88 175 102 145T142 93T200 58Q220 50 240 47V347Q199 361 162 378Q117 398 83 428T39 509Q34 552 51 591T101 659T178 706Q208 718 240 722V773ZM444 179Q444 228 417 258T348 307Q330
316 310 324V49Q323 51 336 55Q367 63 391 79T429 120T444 179ZM209 644Q178 633 155 614T119 569T112 514Q120 479 152 459T230 422L240 418V652Q224 649 209 644Z" />
<glyph unicode="%" glyph-name="percent" horiz-adv-x="356" d="M101 0H27L252 700H329L101 0ZM27 659Q27 677 39 689T69 701Q87 701 99 689T111 659Q111 641 99 629T69 617Q51 617 39 629T27 659ZM246 42Q246 60 258 72T288 84Q306 84 318 72T330 42Q330 24 318
12T288 0Q270 0 258 12T246 42Z" />
<glyph unicode="&amp;" glyph-name="ampersand" horiz-adv-x="634" d="M470 106L405 42Q372 9 331 -7T247 -24T162 -8T88 41Q55 74 41 116T29 204T56 293T124 371L186 422L169 440Q140 472 124 499T108 559Q108 588 119 614T149 659T193 689T248 700Q277 700 303
689T348 659T378 614T389 559Q389 518 369 489T316 436L285 414L472 207L570 307L620 257L519 155L618 46L566 0L470 106ZM423 158L236 373L172 319Q134 287 116 256T96 196T104 141T139 92Q161 69 189 58T247 47T305 57T356 91L423 158ZM178 559Q179 534 195 514T225
480L239 465Q247 470 260 478T286 499T308 526T318 559Q318 588 298 608T248 629Q219 629 198 609T178 559Z" />
<glyph unicode="&apos;" glyph-name="quotesingle" horiz-adv-x="140" d="M40 700H102V537H40V700Z" />
<glyph unicode="(" glyph-name="parenleft" horiz-adv-x="199" d="M106 -70Q106 -86 112 -100T130 -124T155 -140T185 -146V-217Q155 -217 128 -206T80 -175T48 -128T36 -70V677Q36 708 48 735T80 781T127 812T185 824V753Q169 753 155 747T130 731T113 707T106 677V-70Z" />
<glyph unicode=")" glyph-name="parenright" horiz-adv-x="199" d="M95 677Q95 693 89 707T71 731T46 747T16 753V824Q46 824 73 813T121 782T153 735T165 677V-70Q165 -101 153 -128T121 -174T74 -205T16 -217V-146Q32 -146 46 -140T71 -124T88 -100T95 -70V677Z" />
<glyph unicode="*" glyph-name="asterisk" horiz-adv-x="210" d="M86 641V700H123V641L174 670L192 637L142 609L192 581L174 550L123 578V520H86V578L36 550L18 581L67 609L18 637L36 670L86 641Z" />
<glyph unicode="+" glyph-name="plus" horiz-adv-x="356" d="M349 342V272H212V135H142V272H8V342H142V476H212V342H349Z" />
<glyph unicode="," glyph-name="comma" horiz-adv-x="134" d="M25 42Q25 60 37 72T67 84Q85 84 97 72T109 42V3Q109 -17 103 -32T79 -58Q54 -71 47 -63T48 -43Q56 -33 61 -24T67 0Q49 0 37 12T25 42Z" />
<glyph unicode="-" glyph-name="hyphen" horiz-adv-x="421" d="M381 342V272H40V342H381Z" />
<glyph unicode="." glyph-name="period" horiz-adv-x="141" d="M29 42Q29 60 41 72T71 84Q89 84 101 72T113 42Q113 24 101 12T71 0Q53 0 41 12T29 42Z" />
<glyph unicode="/" glyph-name="slash" horiz-adv-x="312" d="M79 0H5L233 700H307L79 0Z" />
<glyph unicode="0" glyph-name="zero" horiz-adv-x="803" d="M28 350Q28 427 57 495T138 614T257 694T402 724Q479 724 547 695T666 614T746 495T776 350Q776 273 747 205T666 86T547 6T402 -24Q325 -24 257 5T138 86T58 205T28 350ZM98 350Q98 288 122 233T187
136T284 70T402 46Q464 46 519 70T615 135T681 232T705 350Q705 412 681 467T616 563T519 629T402 653Q340 653 285 629T188 564T122 467T98 350Z" />
<glyph unicode="1" glyph-name="one" horiz-adv-x="214" d="M175 700V0H105V631H4V700H175Z" />
<glyph unicode="2" glyph-name="two" horiz-adv-x="506" d="M410 658Q443 625 459 585T475 502T459 418T410 345L120 70H484V0H18V70L361 393Q383 415 394 443T406 501T395 558T361 608Q338 630 311 641T254 653T196 642T146 608Q125 587 114 561T101 506H31Q32
548 48 587T96 658Q129 691 169 707T253 723T336 707T410 658Z" />
<glyph unicode="3" glyph-name="three" horiz-adv-x="593" d="M510 700V699L511 700V630L372 516Q391 511 409 503Q459 482 496 445T555 357T577 250Q577 193 556 143T497 56T409 -3T302 -25Q245 -25 195 -4T108 55T48 143Q27 192 27 249H97Q97 207 113 170Q129
133 157 105T222 61T302 45Q344 45 381 61T447 105T491 170T507 250Q507 292 491 329T440 399T356 442Q303 451 256 444V519L407 630H67V700H510Z" />
<glyph unicode="4" glyph-name="four" horiz-adv-x="486" d="M397 196H479V126H397V0H327V126H13L152 700H224L102 196H327V319H397V196Z" />
<glyph unicode="5" glyph-name="five" horiz-adv-x="596" d="M190 485Q256 526 332 525Q389 525 439 504T526 445T585 357T607 250Q607 193 586 143T527 56T439 -3T332 -25Q275 -25 225 -4T138 55T78 143Q57 192 57 249H127Q127 207 143 170Q159 133 187 105T252
61T332 45Q374 45 411 61T477 105T521 170T537 250Q537 292 521 329T477 395T412 439T327 455Q279 455 237 439T170 388H100L162 700H510V630H218L190 485V485Z" />
<glyph unicode="6" glyph-name="six" horiz-adv-x="605" d="M31 449Q31 506 52 556T111 643T199 702T306 724Q363 724 413 702Q460 682 496 646L448 597Q421 623 385 637Q348 653 306 653Q264 653 227 638T161 594T117 529T101 449V434Q106 440 111 445Q149 483
199 504T306 526Q363 526 413 505T500 446T559 358T581 251Q581 194 560 144T501 57T413 -2T306 -24Q249 -24 199 -3T112 56T53 144T31 251V449ZM101 251Q101 209 117 172T161 106T226 62T306 46Q348 46 385 62T451 106T495 171T511 251Q511 293 495 330T451 396T386
440T306 456Q264 456 227 440T161 396T117 331T101 251Z" />
<glyph unicode="7" glyph-name="seven" horiz-adv-x="495" d="M108 0H23L368 630H23V700H492L108 0Z" />
<glyph unicode="8" glyph-name="eight" horiz-adv-x="594" d="M163 590Q163 618 173 642T202 685T244 713T297 724Q325 724 349 714T392 685T420 643T431 590Q431 541 401 505L404 504Q454 483 491 446T550 358T572 251Q572 194 551 144T492 57T404 -2T297 -24Q240
-24 190 -3T103 56T44 144T22 251T43 358T102 445T190 504L193 505Q163 541 163 590ZM92 251Q92 209 108 172T152 106T217 62T297 46Q339 46 376 62T442 106T486 171T502 251Q502 293 486 330T442 396T376 440Q341 455 302 456H297Q255 456 218 440T152 396T108
331T92 251ZM233 590Q233 564 252 545T297 526H302Q326 528 343 546T361 590Q361 616 342 635T297 654Q271 654 252 635T233 590Z" />
<glyph unicode="9" glyph-name="nine" horiz-adv-x="605" d="M574 449V437Q573 193 552 144Q531 94 494 57T406 -2T299 -24Q242 -24 192 -2Q145 18 109 54L157 103Q184 77 220 63Q257 47 299 47Q341 47 378 62T444 106T488 171T504 251V265Q499 260 493 254Q456
217 406 196T299 174Q242 174 192 195T105 254T46 342T24 449Q24 506 45 556T104 643T192 702T299 724Q356 724 406 703T493 644T552 556T574 449ZM504 449Q504 491 488 528T444 594T379 638T299 654Q257 654 220 638T154 594T110 529T94 449Q94 407 110 370T154
304T219 260T299 244Q341 244 378 260T444 304T488 369T504 449Z" />
<glyph unicode=":" glyph-name="colon" horiz-adv-x="145" d="M31 42Q31 60 43 72T73 84Q91 84 103 72T115 42Q115 24 103 12T73 0Q55 0 43 12T31 42ZM31 458Q31 476 43 488T73 500Q91 500 103 488T115 458Q115 440 103 428T73 416Q55 416 43 428T31 458Z" />
<glyph unicode=";" glyph-name="semicolon" horiz-adv-x="139" d="M25 458Q25 476 37 488T67 500Q85 500 97 488T109 458Q109 440 97 428T67 416Q49 416 37 428T25 458ZM25 42Q25 60 37 72T67 84Q85 84 97 72T109 42V3Q109 -10 104 -23T84 -45Q59 -58 52 -50T56
-32Q80 -19 73 0Q45 0 35 12T25 42Z" />
<glyph unicode="&lt;" glyph-name="less" horiz-adv-x="438" d="M3 213V290L400 462V385L92 251L400 118V41L3 213Z" />
<glyph unicode="=" glyph-name="equal" horiz-adv-x="556" d="M516 356V286H40V356H516ZM516 216V146H40V216H516Z" />
<glyph unicode="&gt;" glyph-name="greater" horiz-adv-x="440" d="M40 41V118L348 251L40 385V462L437 290V213L40 41Z" />
<glyph unicode="?" glyph-name="question" horiz-adv-x="496" d="M274 42Q274 24 262 12T232 0Q214 0 202 12T190 42Q190 60 202 72T232 84Q250 84 262 72T274 42ZM196 273H234Q271 273 304 287T361 325T400 382T414 453Q414 490 400 523T362 580T304 619T234
633Q184 633 145 614T82 556H8Q36 624 96 662T234 700Q285 700 330 681T408 628T461 549T481 453Q481 406 465 364T419 290T351 236T266 209V131H196V273Z" />
<glyph unicode="@" glyph-name="at" horiz-adv-x="809" d="M706 350Q706 413 682 468T617 564T520 630T402 654Q339 654 284 630T188 565T122 468T98 350T122 232T187 136T284 70T402 46V-24Q325 -24 257 5T138 86T58 205T28 350T57 495T138 614T257 694T402 724Q479
724 547 695T666 614T746 495T776 350V81Q776 60 768 41T745 7T712 -15T671 -24Q649 -24 630 -16T597 7T575 40T567 81V183Q535 152 493 134Q451 116 402 116Q353 116 311 134T237 184T187 258T168 350T186 441T236 516T310 566T402 585Q451 585 493 567T568 516T618
442T637 350V81Q637 67 647 57T671 47Q685 47 695 57T706 81V350ZM237 350Q237 316 250 286T285 234T338 198T402 185Q436 185 466 198T518 233T554 286T567 350Q567 384 554 414T519 466T466 502T402 515Q368 515 338 502T286 467T250 414T237 350Z" />
<glyph unicode="A" glyph-name="A" horiz-adv-x="554" d="M538 0H465L377 272H176L89 0H16L240 700H314L538 0ZM199 342H355L277 585L199 342Z" />
<glyph unicode="B" glyph-name="B" horiz-adv-x="533" d="M444 51Q379 0 269 0H40V700H228Q336 700 398 650Q458 599 458 511Q458 466 443 432T398 372Q396 370 394 369Q422 358 444 341Q475 312 491 278T507 195Q507 106 444 51ZM387 104Q430 140 430 196Q430
256 387 290Q348 323 270 323H110V71H270Q348 71 387 104ZM343 423Q383 455 383 511Q383 566 343 600Q300 632 230 632H110V391H260Q306 391 343 423Z" />
<glyph unicode="C" glyph-name="C" horiz-adv-x="763" d="M98 350Q98 288 122 233T187 136T284 70T402 46Q464 46 519 70T615 135Q633 153 648 174H731Q705 125 666 86Q615 35 547 6T402 -24Q325 -24 257 5T138 86T58 205T28 350T57 495T138 614T257 694T402 724Q479
724 547 695T666 614Q705 575 731 526H647Q633 546 615 563Q574 605 519 629T402 653Q340 653 285 629T188 564T122 467T98 350Z" />
<glyph unicode="D" glyph-name="D" horiz-adv-x="649" d="M40 700H275Q347 700 411 673T522 598T596 487T624 351Q624 279 597 215T522 103T411 28T275 0H40V700ZM275 70Q333 70 383 92T472 152T532 242T554 351Q554 409 532 459T472 548T384 608T275 630H110V70H275Z" />
<glyph unicode="E" glyph-name="E" horiz-adv-x="519" d="M40 700H506V630H110V342H436V272H110V70H506V0H40V700Z" />
<glyph unicode="F" glyph-name="F" horiz-adv-x="539" d="M40 700H506V630H110V342H436V272H110V0H40V700Z" />
<glyph unicode="G" glyph-name="G" horiz-adv-x="795" d="M743 342Q744 177 685 103T552 3T402 -24Q325 -24 257 5T138 86T58 205T28 350T57 495T138 614T257 694T402 724Q479 724 547 695T666 614Q705 575 731 526H647Q633 546 615 563Q574 605 519 629T402 653Q340
653 285 629T188 564T122 467T98 350T122 233T187 136T284 70T402 46Q464 46 522 65T622 141T662 272H428V342H743Z" />
<glyph unicode="H" glyph-name="H" horiz-adv-x="546" d="M436 700H506V0H436V272H110V0H40V700H110V342H436V700Z" />
<glyph unicode="I" glyph-name="I" horiz-adv-x="148" d="M40 700H110V0H40V700Z" />
<glyph unicode="J" glyph-name="J" horiz-adv-x="515" d="M83 209Q83 175 95 146T130 94T182 59T246 46Q280 46 309 59T361 94T396 145T409 209V630H83V700H479V209Q479 161 461 119T411 45T337 -5T246 -24Q198 -24 156 -6T82 44T32 118T13 209H83Z" />
<glyph unicode="K" glyph-name="K" horiz-adv-x="528" d="M505 0H417L152 322L110 272V0H40V700H110V383L371 700H467L198 377L505 0Z" />
<glyph unicode="L" glyph-name="L" horiz-adv-x="535" d="M506 70V0H40V700H110V70H506Z" />
<glyph unicode="M" glyph-name="M" horiz-adv-x="667" d="M558 700H628V0H558V582L333 277L110 581V0H40V700H110L333 395L558 700Z" />
<glyph unicode="N" glyph-name="N" horiz-adv-x="546" d="M436 700H506V0H436L110 560V0H40V700H110L436 140V700Z" />
<glyph unicode="O" glyph-name="O" horiz-adv-x="803" d="M28 350Q28 427 57 495T138 614T257 694T402 724Q479 724 547 695T666 614T746 495T776 350Q776 273 747 205T666 86T547 6T402 -24Q325 -24 257 5T138 86T58 205T28 350ZM98 350Q98 288 122 233T187 136T284
70T402 46Q464 46 519 70T615 135T681 232T705 350Q705 412 681 467T616 563T519 629T402 653Q340 653 285 629T188 564T122 467T98 350Z" />
<glyph unicode="P" glyph-name="P" horiz-adv-x="498" d="M40 700H248Q356 700 418 650Q478 599 478 487Q478 415 463 381T418 321Q356 272 248 272H110V0H40V700ZM363 372Q403 404 403 487Q403 566 363 600Q320 632 250 632H110V340H250Q320 340 363 372Z" />
<glyph unicode="Q" glyph-name="Q" horiz-adv-x="796" d="M22 350Q22 427 51 495T132 614T251 694T396 724Q473 724 541 695T660 614T740 495T770 350Q770 273 741 205T660 86Q612 38 548 9Q552 -6 565 -18Q583 -35 608 -35V-105Q581 -105 558 -95T517 -68T489
-26Q486 -20 484 -13Q441 -24 396 -24Q319 -24 251 5T132 86T52 205T22 350ZM92 350Q92 288 116 233T181 136T278 70T396 46Q434 46 470 55Q466 61 461 66Q443 83 418 83V153Q445 153 468 143T509 115Q525 100 534 80Q576 102 609 135Q651 177 675 232T699 350Q699
412 675 467T610 563T513 629T396 653Q334 653 279 629T182 564T116 467T92 350Z" />
<glyph unicode="R" glyph-name="R" horiz-adv-x="508" d="M40 700H248Q350 700 415 650Q446 621 462 579T478 488Q478 378 415 323Q402 313 387 304Q401 296 414 287Q477 232 477 143V0H407V143Q407 173 396 196T363 238Q326 272 259 272H110V0H40V700ZM363 372Q407
409 407 489Q407 568 363 603Q323 637 249 637H110V338H249Q323 338 363 372Z" />
<glyph unicode="S" glyph-name="S" horiz-adv-x="546" d="M450 179Q450 228 423 258T355 307T263 342T168 378T89 428T45 509Q40 552 57 591T107 659T184 706T277 724Q331 724 371 705T439 660T482 604T501 555H424Q405 603 364 628T277 654Q246 655 215 644T161
614T125 569T118 514Q126 479 158 459T236 422T331 390T423 349T492 283T520 179Q520 131 500 93T447 29T369 -10T277 -24Q229 -24 183 -7T102 40T46 114T24 209H94Q94 175 108 145T148 93T206 58T277 46Q311 47 342 55T397 79T435 120T450 179Z" />
<glyph unicode="T" glyph-name="T" horiz-adv-x="486" d="M10 630V700H476V630H278V0H208V630H10Z" />
<glyph unicode="U" glyph-name="U" horiz-adv-x="538" d="M106 209Q106 175 118 145T153 93T205 59T269 46Q303 46 333 58T385 93T419 145T432 209V700H502V209Q502 160 484 118T435 44T361 -6T269 -24Q220 -24 178 -6T104 43T54 117T36 209V700H106V209Z" />
<glyph unicode="V" glyph-name="V" horiz-adv-x="554" d="M16 700H89L277 115L465 700H538L314 0H240L16 700Z" />
<glyph unicode="W" glyph-name="W" horiz-adv-x="663" d="M333 305L110 0H40V700H110V119L333 423L558 118V700H628V0H558L333 305Z" />
<glyph unicode="X" glyph-name="X" horiz-adv-x="526" d="M110 0H30L222 350L42 700H123L263 426L402 700H483L303 350L496 0H416L263 274L110 0Z" />
<glyph unicode="Y" glyph-name="Y" horiz-adv-x="548" d="M13 700H90L274 343L458 700H535L312 275V0H237V273L13 700Z" />
<glyph unicode="Z" glyph-name="Z" horiz-adv-x="514" d="M24 0V70L406 630H24V700H490V630L106 70H490V0H24Z" />
<glyph unicode="[" glyph-name="bracketleft" horiz-adv-x="223" d="M40 824H215V754H110V-148H215V-218H40V824Z" />
<glyph unicode="\" glyph-name="backslash" horiz-adv-x="312" d="M5 700H79L307 0H233L5 700Z" />
<glyph unicode="]" glyph-name="bracketright" horiz-adv-x="222" d="M183 -218H8V-148H113V754H8V824H183V-218Z" />
<glyph unicode="^" glyph-name="asciicircum" horiz-adv-x="455" d="M189 700H266L438 303H361L227 611L94 303H17L189 700Z" />
<glyph unicode="_" glyph-name="underscore" horiz-adv-x="584" d="M40 0V70H544V0H40Z" />
<glyph unicode="`" glyph-name="grave" horiz-adv-x="161" d="M17 700H91L142 573H68L17 700Z" />
<glyph unicode="a" glyph-name="a" horiz-adv-x="610" d="M27 251Q27 308 48 358T107 445T195 504T302 526Q359 526 409 505T496 446T555 358T577 251V0H507V67Q502 62 496 56Q459 19 409 -2T302 -24Q245 -24 195 -3T108 56T49 144T27 251ZM97 251Q97 209 113
172T157 106T222 62T302 46Q344 46 381 62T447 106T491 171Q505 205 507 242V251Q507 293 491 330T447 396T382 440T302 456Q260 456 223 440T157 396T113 331T97 251Z" />
<glyph unicode="b" glyph-name="b" horiz-adv-x="596" d="M21 700H91V420Q119 465 179 495T296 526Q353 526 403 505T490 446T549 358T571 251Q571 194 550 144T491 57T403 -2T296 -24Q239 -24 189 -3T102 56T43 144T21 251V700ZM91 251Q91 209 107 172T151 106T216
62T296 46Q338 46 375 62T441 106T485 171T501 251Q501 293 485 330T441 396T376 440T296 456Q254 456 217 440T151 396T107 331T91 251Z" />
<glyph unicode="c" glyph-name="c" horiz-adv-x="579" d="M97 251Q97 209 113 172T157 106T222 62T302 46Q344 46 381 62T447 106Q467 126 481 152H558L555 144Q534 94 497 57T409 -2T302 -24Q245 -24 195 -3T108 56T49 144T27 251T48 358T107 445T195 504T302
526Q359 526 409 505T496 446T555 358L558 351H480Q467 376 447 396Q419 424 382 440T302 456Q260 456 223 440T157 396T113 331T97 251Z" />
<glyph unicode="d" glyph-name="d" horiz-adv-x="596" d="M561 251Q561 194 540 144T481 57T393 -2T286 -24Q229 -24 179 -3T92 56T33 144T11 251Q11 308 32 358T91 445T179 504T286 526Q343 526 403 496T491 420V700H561V251ZM491 251Q491 293 475 330T431 396T366
440T286 456Q244 456 207 440T141 396T97 331T81 251Q81 209 97 172T141 106T206 62T286 46Q328 46 365 62T431 106T475 171T491 251Z" />
<glyph unicode="e" glyph-name="e" horiz-adv-x="598" d="M97 251Q97 209 113 172T157 106T222 62T302 46Q344 46 381 62T447 106Q467 126 481 152H558L555 144Q534 94 497 57T409 -2T302 -24Q245 -24 195 -3T108 56T49 144T27 251T48 358T107 445T195 504T302
526Q359 526 409 505T496 446T555 358Q573 317 576 272H98Q97 261 97 251ZM447 396Q419 424 382 440T302 456Q260 456 223 440T157 396Q133 372 118 342H485Q470 372 447 396Z" />
<glyph unicode="f" glyph-name="f" horiz-adv-x="317" d="M113 272V0H41V272H-10V342H41V566Q41 594 51 618T80 661T122 689T175 700Q203 700 227 690T270 661T299 619T310 566H240Q240 592 221 610T176 629Q150 629 132 611T113 566V342H242V272H113Z" />
<glyph unicode="g" glyph-name="g" horiz-adv-x="611" d="M506 500H576V262V52Q576 -5 555 -55T496 -142T408 -201T301 -223Q244 -223 194 -202T106 -142Q86 -122 70 -97L121 -46Q135 -72 156 -93Q184 -121 221 -137T301 -153Q343 -153 380 -137T446 -93T490 -28T506
52V67Q501 62 495 56Q458 19 408 -2T301 -24Q244 -24 194 -3T107 56T48 144T26 251T47 358T106 445T194 504T301 526Q358 526 408 505T495 445Q501 440 506 434V500ZM96 251Q96 209 112 172T156 106T221 62T301 46Q343 46 380 62T446 106T490 171T506 259Q506 298
492 331Q474 368 446 396T381 440T301 456Q259 456 222 440T156 396T112 331T96 251Z" />
<glyph unicode="h" glyph-name="h" horiz-adv-x="530" d="M40 700H112V456Q124 472 140 485T177 507T220 521T264 526Q310 526 351 508T422 460T471 388T489 301V300L490 0H418L417 300V301Q417 333 405 361T372 409T323 442T264 454Q234 454 207 441T159 407T126
358T113 300V0H40V700Z" />
<glyph unicode="i" glyph-name="i" horiz-adv-x="134" d="M32 500H102V0H32V500ZM26 658Q26 676 38 688T68 700Q86 700 98 688T110 658Q110 640 98 628T68 616Q50 616 38 628T26 658Z" />
<glyph unicode="j" glyph-name="j" horiz-adv-x="150" d="M-84 -63Q-84 -89 -66 -107T-21 -126Q5 -126 24 -108T43 -63V500H113V-63Q113 -91 103 -115T74 -158T31 -186T-22 -197Q-50 -197 -74 -187T-117 -158T-145 -116T-156 -63H-84ZM36 658Q36 676 48 688T78
700Q96 700 108 688T120 658Q120 640 108 628T78 616Q60 616 48 628T36 658Z" />
<glyph unicode="k" glyph-name="k" horiz-adv-x="393" d="M390 0H300L110 252L111 0H41L40 700H110V335L296 500H379L164 297L390 0Z" />
<glyph unicode="l" glyph-name="l" horiz-adv-x="148" d="M40 700H110V0H40V700Z" />
<glyph unicode="m" glyph-name="m" horiz-adv-x="904" d="M40 500H112V455Q136 487 177 506T264 526Q323 526 370 498T449 422Q479 469 530 497T642 526Q688 526 729 508T800 460T848 388T866 300L867 0H795L794 300Q794 332 782 360T750 409T702 442T642 454Q610
454 583 442T534 409T501 360T489 300L490 0H418L417 300Q415 333 403 361T370 410T322 442T264 454Q233 454 206 441T157 407T124 358T112 300L113 0H41L40 500Z" />
<glyph unicode="n" glyph-name="n" horiz-adv-x="523" d="M416 300Q416 332 404 360T371 409T322 442T263 454Q232 454 204 441T155 407T122 357T109 300L110 0H39V500H109V454Q119 470 136 483T173 506T217 521T263 526Q309 526 350 508T421 460T470 388T488
300L489 0H417L416 300Z" />
<glyph unicode="o" glyph-name="o" horiz-adv-x="604" d="M27 251Q27 308 48 358T107 445T195 504T302 526Q359 526 409 505T496 446T555 358T577 251Q577 194 556 144T497 57T409 -2T302 -24Q245 -24 195 -3T108 56T49 144T27 251ZM97 251Q97 209 113 172T157
106T222 62T302 46Q344 46 381 62T447 106T491 171T507 251Q507 293 491 330T447 396T382 440T302 456Q260 456 223 440T157 396T113 331T97 251Z" />
<glyph unicode="p" glyph-name="p" horiz-adv-x="617" d="M31 250Q31 307 52 357T111 444T199 503T306 525Q363 525 413 504T500 445T559 357T581 250Q581 193 560 143T501 56T413 -3T306 -25Q249 -25 189 5T101 81V-199H31V250ZM101 250Q101 208 117 171T161
105T226 61T306 45Q348 45 385 61T451 105T495 170T511 250Q511 292 495 329T451 395T386 439T306 455Q264 455 227 439T161 395T117 330T101 250Z" />
<glyph unicode="q" glyph-name="q" horiz-adv-x="615" d="M581 -199H511V81Q483 36 423 6T306 -25Q249 -25 199 -4T112 55T53 143T31 250Q31 307 52 357T111 444T199 503T306 525Q363 525 413 504T500 445T559 357T581 250V-199ZM511 250Q511 292 495 329T451
395T386 439T306 455Q264 455 227 439T161 395T117 330T101 250Q101 208 117 171T161 105T226 61T306 45Q348 45 385 61T451 105T495 170T511 250Z" />
<glyph unicode="r" glyph-name="r" horiz-adv-x="343" d="M40 500H110V405Q115 415 121 421Q159 459 209 480T316 502V432Q274 432 237 416T171 372T127 307T111 227V0H41L40 500Z" />
<glyph unicode="s" glyph-name="s" horiz-adv-x="415" d="M316 125Q317 159 304 178T264 209T199 231T127 255T70 297T41 367Q37 400 50 428T86 477T143 512T211 526Q251 526 280 513T330 480T361 438T375 402H300Q291 431 266 446T211 462Q191 462 168 454T126
422T111 371Q116 347 134 334T183 310T251 287T320 255T371 203T389 125Q389 90 375 62T336 15T279 -14T211 -24Q176 -24 142 -12T82 23T41 77T26 152H97Q97 126 107 104T145 63T216 45Q265 45 289 68T316 125Z" />
<glyph unicode="t" glyph-name="t" horiz-adv-x="289" d="M18 430V500H69V700H139V500H270V430H139V0H69V430H18Z" />
<glyph unicode="u" glyph-name="u" horiz-adv-x="518" d="M414 225V500H484V225Q484 179 467 138T419 67T347 18T260 0Q214 0 173 18T102 66T53 138T35 225V226L34 500H106L107 226V225Q107 193 119 165T152 117T200 84T260 72Q292 72 320 84T369 116T402 165T414 225Z" />
<glyph unicode="v" glyph-name="v" horiz-adv-x="545" d="M16 500H93L272 88L452 500H529L311 0H234L16 500Z" />
<glyph unicode="w" glyph-name="w" horiz-adv-x="900" d="M791 500H863V202Q863 155 846 114T797 43T725 -6T638 -24Q578 -24 529 4T449 80Q418 32 369 4T260 -24Q213 -24 173 -6T102 42T55 114T37 202V500H107V202Q107 170 119 142T151 93T200 60T260 48Q291
48 319 60T368 93T401 142T414 202V500H486V202Q487 168 499 140T532 92T580 60T638 48Q670 48 698 60T746 93T779 142T791 202V500Z" />
<glyph unicode="x" glyph-name="x" horiz-adv-x="411" d="M113 0H33L165 250L33 500H114L206 327L298 500H379L246 250L379 0H299L206 174L113 0Z" />
<glyph unicode="y" glyph-name="y" horiz-adv-x="524" d="M414 225V500H484V225Q484 179 467 138T419 67T347 18Q322 7 295 2L296 -224H225L224 2Q197 7 173 18Q132 36 102 66T53 138T35 225V226L34 500H106L107 226V225Q107 193 119 165T152 117T200 84T260 72Q292
72 320 84T369 116T402 165T414 225Z" />
<glyph unicode="z" glyph-name="z" horiz-adv-x="411" d="M33 0L261 430H33V500H379L150 70H379V0H33Z" />
<glyph unicode="{" glyph-name="braceleft" horiz-adv-x="256" d="M155 -70Q155 -86 161 -100T179 -124T204 -140T234 -146V-217Q204 -217 177 -206T129 -175T97 -128T85 -70V193Q85 224 64 245T12 269H6V340Q22 340 36 346T61 362T78 386T85 416V677Q85 708 97
735T129 781T176 812T234 824V753Q218 753 204 747T179 731T162 707T155 677V416Q155 381 141 353T103 304Q126 284 140 256T155 193V-70Z" />
<glyph unicode="|" glyph-name="bar" horiz-adv-x="148" d="M40 824H110V-215H40V824Z" />
<glyph unicode="}" glyph-name="braceright" horiz-adv-x="257" d="M102 193Q102 227 116 255T154 304Q131 324 117 352T102 416V677Q102 693 96 707T78 731T53 747T23 753V824Q53 824 80 813T128 782T160 735T172 677V416Q172 400 178 386T196 362T221 346T251
340V269H245Q215 267 194 246T172 193V-70Q172 -101 160 -128T128 -174T81 -205T23 -217V-146Q39 -146 53 -140T78 -124T95 -100T102 -70V193Z" />
<glyph unicode="~" glyph-name="asciitilde" horiz-adv-x="498" d="M27 435H99V386Q99 360 117 342T162 323Q184 323 201 337T236 369T277 400T336 415Q364 415 388 405T431 376T459 334T470 281V232H398V281Q398 307 380 325T335 344Q313 344 297 330T262 298T221
267T161 252Q133 252 109 262T66 291T38 333T27 386V435Z" />
</font>
</defs>
</svg>
